<svg width="166" height="20" viewBox="0 0 166 20" fill="none" xmlns="http://www.w3.org/2000/svg">
<path d="M1.404 13.9997V10.7117H3.528C5.616 10.7117 6.66 9.82367 6.66 8.05967C6.66 6.30767 5.616 5.43167 3.552 5.43167H0V13.9997H1.404ZM3.444 9.51167H1.404V6.63167H3.444C4.056 6.63167 4.512 6.73967 4.8 6.96767C5.088 7.18367 5.244 7.54367 5.244 8.05967C5.244 8.57567 5.1 8.94767 4.812 9.17567C4.524 9.39167 4.068 9.51167 3.444 9.51167ZM10.62 14.1677C11.556 14.1677 12.324 13.8557 12.9 13.2317C13.452 12.6317 13.74 11.8517 13.74 10.9037C13.74 9.94367 13.452 9.16367 12.888 8.55167C12.312 7.92767 11.556 7.62767 10.62 7.62767C9.672 7.62767 8.916 7.92767 8.352 8.55167C7.776 9.16367 7.5 9.94367 7.5 10.9037C7.5 11.8517 7.776 12.6317 8.34 13.2317C8.916 13.8557 9.672 14.1677 10.62 14.1677ZM10.62 13.0517C10.044 13.0517 9.612 12.8237 9.3 12.3797C9.036 11.9957 8.904 11.5037 8.904 10.9037C8.904 10.3037 9.036 9.79967 9.3 9.41567C9.612 8.95967 10.044 8.74367 10.62 8.74367C11.184 8.74367 11.628 8.95967 11.94 9.41567C12.204 9.79967 12.348 10.3037 12.348 10.9037C12.348 11.4917 12.204 11.9837 11.94 12.3797C11.628 12.8237 11.184 13.0517 10.62 13.0517ZM17.64 13.9997L18.888 9.46367L20.124 13.9997H21.396L23.484 7.79567H21.972L20.736 12.3797L19.512 7.79567H18.252L17.028 12.3797L15.792 7.79567H14.28L16.368 13.9997H17.64ZM26.964 14.1677C27.792 14.1677 28.476 13.9277 29.028 13.4597C29.46 13.0757 29.748 12.5837 29.892 12.0077H28.524C28.356 12.3557 28.176 12.6077 27.972 12.7637C27.708 12.9557 27.372 13.0517 26.952 13.0517C26.46 13.0517 26.076 12.8957 25.812 12.5957C25.548 12.2957 25.392 11.8517 25.344 11.2757H29.988C29.988 10.1597 29.736 9.28367 29.244 8.65967C28.704 7.96367 27.924 7.62767 26.904 7.62767C25.98 7.62767 25.248 7.93967 24.72 8.57567C24.168 9.19967 23.904 9.96767 23.904 10.8917C23.904 11.9237 24.192 12.7277 24.768 13.3157C25.308 13.8797 26.04 14.1677 26.964 14.1677ZM28.56 10.2437H25.368C25.452 9.75167 25.62 9.37967 25.872 9.12767C26.136 8.86367 26.484 8.74367 26.94 8.74367C27.9 8.74367 28.44 9.23567 28.56 10.2437ZM32.424 13.9997V10.7117C32.424 10.1837 32.58 9.76367 32.916 9.43967C33.204 9.15167 33.528 9.01967 33.888 9.01967C34.176 9.01967 34.464 9.05567 34.776 9.15167V7.78367C34.56 7.67567 34.296 7.62767 33.996 7.62767C33.612 7.62767 33.288 7.73567 33.012 7.96367C32.784 8.13167 32.592 8.37167 32.424 8.68367V7.79567H31.068V13.9997H32.424ZM38.256 14.1677C39.084 14.1677 39.768 13.9277 40.32 13.4597C40.752 13.0757 41.04 12.5837 41.184 12.0077H39.816C39.648 12.3557 39.468 12.6077 39.264 12.7637C39 12.9557 38.664 13.0517 38.244 13.0517C37.752 13.0517 37.368 12.8957 37.104 12.5957C36.84 12.2957 36.684 11.8517 36.636 11.2757H41.28C41.28 10.1597 41.028 9.28367 40.536 8.65967C39.996 7.96367 39.216 7.62767 38.196 7.62767C37.272 7.62767 36.54 7.93967 36.012 8.57567C35.46 9.19967 35.196 9.96767 35.196 10.8917C35.196 11.9237 35.484 12.7277 36.06 13.3157C36.6 13.8797 37.332 14.1677 38.256 14.1677ZM39.852 10.2437H36.66C36.744 9.75167 36.912 9.37967 37.164 9.12767C37.428 8.86367 37.776 8.74367 38.232 8.74367C39.192 8.74367 39.732 9.23567 39.852 10.2437ZM45 14.1677C45.816 14.1677 46.44 13.8917 46.872 13.3397V13.9997H48.144V5.26367H46.776V8.64767C46.26 7.96367 45.648 7.62767 44.928 7.62767C44.04 7.62767 43.332 7.95167 42.828 8.59967C42.348 9.19967 42.12 9.95567 42.12 10.8677C42.12 11.8157 42.36 12.5957 42.84 13.1957C43.356 13.8437 44.076 14.1677 45 14.1677ZM45.204 13.0637C44.592 13.0637 44.148 12.8477 43.872 12.4157C43.632 12.0557 43.524 11.5397 43.524 10.8677C43.524 10.1957 43.644 9.69167 43.896 9.34367C44.184 8.93567 44.628 8.73167 45.252 8.73167C45.684 8.73167 46.056 8.91167 46.344 9.27167C46.656 9.65567 46.824 10.1837 46.824 10.8437V10.9397C46.824 11.5397 46.692 12.0437 46.44 12.4277C46.152 12.8477 45.732 13.0637 45.204 13.0637ZM56.724 14.1677C57.636 14.1677 58.356 13.8437 58.884 13.1957C59.364 12.5957 59.604 11.8157 59.604 10.8677C59.604 9.95567 59.364 9.19967 58.896 8.59967C58.38 7.95167 57.684 7.62767 56.796 7.62767C56.076 7.62767 55.452 7.96367 54.948 8.64767V5.26367H53.58V13.9997H54.852V13.3397C55.284 13.8917 55.908 14.1677 56.724 14.1677ZM56.52 13.0637C55.98 13.0637 55.572 12.8477 55.284 12.4277C55.02 12.0437 54.9 11.5397 54.9 10.9397V10.8437C54.9 10.1837 55.056 9.65567 55.38 9.27167C55.668 8.91167 56.028 8.73167 56.472 8.73167C57.084 8.73167 57.54 8.93567 57.828 9.34367C58.068 9.69167 58.2 10.1957 58.2 10.8677C58.2 11.5397 58.08 12.0557 57.852 12.4157C57.564 12.8477 57.12 13.0637 56.52 13.0637ZM62.976 16.3757L66.336 7.79567H64.848L63.276 12.2117L61.632 7.79567H60.144L62.604 13.8557L61.512 16.3757H62.976Z" fill="#DADCE5"/>
<path d="M117.422 14.6753L114.582 7.44506L114.012 18.1058C114.009 18.1532 113.988 18.1979 113.953 18.2305C113.918 18.2631 113.871 18.2812 113.823 18.2811H110.604C110.579 18.2812 110.554 18.2761 110.53 18.2661C110.507 18.2562 110.486 18.2416 110.468 18.2233C110.451 18.205 110.437 18.1834 110.428 18.1597C110.42 18.1361 110.416 18.1109 110.417 18.0858L111.325 1.53475C111.327 1.48741 111.348 1.44279 111.383 1.41014C111.418 1.3775 111.464 1.35932 111.512 1.35938H115.017C115.054 1.35908 115.09 1.36941 115.121 1.3891C115.152 1.40879 115.176 1.43698 115.19 1.47014L118.933 10.0249L122.675 1.47014C122.69 1.4371 122.714 1.40902 122.745 1.38935C122.776 1.36968 122.812 1.35927 122.848 1.35938H126.352C126.4 1.35932 126.446 1.3775 126.481 1.41014C126.516 1.44279 126.537 1.48741 126.539 1.53475L127.447 18.0858C127.448 18.1109 127.445 18.1361 127.436 18.1597C127.427 18.1834 127.414 18.205 127.396 18.2233C127.379 18.2416 127.357 18.2562 127.334 18.2661C127.31 18.2761 127.285 18.2812 127.26 18.2811H124.043C123.995 18.2812 123.949 18.263 123.914 18.2304C123.879 18.1977 123.858 18.1531 123.856 18.1058L123.283 7.44506L120.444 14.6753C120.429 14.7083 120.405 14.7364 120.374 14.756C120.343 14.7757 120.307 14.7861 120.271 14.786H117.592C117.556 14.7854 117.521 14.7746 117.491 14.755C117.46 14.7354 117.437 14.7077 117.422 14.6753V14.6753Z" fill="#DADCE5"/>
<path d="M134.783 5.67811C135.581 5.67153 136.375 5.78726 137.136 6.02116C137.842 6.23587 138.486 6.61164 139.017 7.118C139.573 7.67106 139.996 8.34102 140.253 9.07784C140.852 10.969 140.852 12.9954 140.253 14.8866C139.996 15.6236 139.574 16.2937 139.017 16.8465C138.487 17.3539 137.842 17.7303 137.136 17.9448C135.598 18.4023 133.956 18.4023 132.418 17.9448C131.715 17.7287 131.074 17.3524 130.546 16.8465C129.99 16.2937 129.567 15.6236 129.31 14.8866C128.989 13.9518 128.837 12.9688 128.861 11.9822C128.838 11.0072 128.99 10.0359 129.31 9.11322C129.571 8.37837 129.994 7.70927 130.546 7.15338C131.074 6.64157 131.714 6.25766 132.418 6.03193C133.182 5.78962 133.981 5.67015 134.783 5.67811V5.67811ZM134.783 15.1943C135.511 15.1943 136.083 14.9579 136.498 14.4851C136.914 14.0123 137.122 13.178 137.122 11.9822C137.122 10.7875 136.914 9.94957 136.498 9.46858C136.083 8.98759 135.511 8.7471 134.783 8.7471C134.459 8.73467 134.136 8.79525 133.838 8.92425C133.541 9.05325 133.278 9.24728 133.068 9.49166C132.64 9.987 132.425 10.8172 132.425 11.9822C132.425 13.1791 132.633 14.0134 133.049 14.4851C133.465 14.9569 134.043 15.1933 134.783 15.1943Z" fill="#DADCE5"/>
<path d="M145.546 1.36621H142.313C142.208 1.36621 142.123 1.45024 142.123 1.55389V18.1003C142.123 18.2039 142.208 18.288 142.313 18.288H145.546C145.651 18.288 145.736 18.2039 145.736 18.1003V1.55389C145.736 1.45024 145.651 1.36621 145.546 1.36621Z" fill="#DADCE5"/>
<path d="M145.712 11.9113L149.855 6.05787C149.877 6.02812 149.905 6.00385 149.938 5.98701C149.972 5.97018 150.008 5.96125 150.045 5.96095H153.641C153.676 5.96052 153.711 5.9698 153.742 5.98776C153.772 6.00572 153.796 6.03164 153.813 6.06263C153.829 6.09361 153.836 6.12843 153.833 6.16319C153.83 6.19794 153.818 6.23125 153.797 6.25939L149.684 11.7467L154.273 17.9908C154.293 18.0189 154.305 18.0521 154.308 18.0866C154.31 18.1211 154.303 18.1556 154.287 18.1863C154.271 18.2171 154.246 18.2428 154.216 18.2607C154.186 18.2786 154.152 18.2879 154.117 18.2877H150.53C150.494 18.2876 150.458 18.2791 150.426 18.2628C150.394 18.2465 150.366 18.2228 150.345 18.1938L145.712 11.9113Z" fill="#DADCE5"/>
<path d="M160.84 10.0099C160.969 10.0099 161.152 10.0099 161.365 10.0207C161.579 10.0315 161.833 10.0422 162.112 10.0576C162.095 9.42998 161.936 8.98079 161.431 8.73157C161.01 8.52236 160.447 8.4316 159.762 8.4316C159.327 8.43761 158.892 8.4824 158.465 8.56544C157.991 8.65294 157.522 8.76696 157.061 8.90695C157.037 8.91428 157.011 8.91675 156.986 8.91422C156.96 8.91169 156.935 8.9042 156.913 8.8922C156.89 8.88019 156.87 8.8639 156.854 8.84425C156.838 8.82461 156.826 8.802 156.818 8.77773L156.481 7.63474C156.431 7.45783 156.363 7.19939 156.272 6.86557C156.207 6.61482 156.155 6.40407 156.116 6.23331C156.107 6.18719 156.116 6.13934 156.14 6.0988C156.164 6.05827 156.202 6.02786 156.247 6.01333C156.95 5.78108 157.668 5.60111 158.398 5.47491C159.049 5.36164 159.708 5.30144 160.369 5.29492C162.1 5.29492 163.438 5.70156 164.384 6.51482C165.331 7.32861 165.805 8.75619 165.805 10.5437V17.4047C165.805 17.4666 165.784 17.5267 165.746 17.5759C165.708 17.625 165.655 17.6606 165.594 17.677C165.008 17.836 164.344 17.9898 163.601 18.1385C162.715 18.3134 161.812 18.399 160.908 18.3939C160.133 18.3996 159.359 18.3258 158.599 18.1739C157.96 18.052 157.353 17.8057 156.812 17.4494C156.316 17.1145 155.919 16.6558 155.661 16.1202C155.375 15.4923 155.237 14.8085 155.257 14.1204C155.232 13.4266 155.405 12.7399 155.758 12.139C156.08 11.6186 156.526 11.1831 157.057 10.8699C157.609 10.5478 158.214 10.323 158.844 10.2053C159.501 10.0766 160.17 10.0112 160.84 10.0099V10.0099ZM162.112 12.6667C161.942 12.6336 161.77 12.6136 161.598 12.6067C161.418 12.599 161.264 12.5944 161.13 12.5944C160.558 12.57 159.988 12.6752 159.464 12.902C159.04 13.1071 158.828 13.4697 158.828 13.9896C158.811 14.2651 158.893 14.5377 159.061 14.7588C159.213 14.9421 159.412 15.0836 159.636 15.1695C159.867 15.2566 160.111 15.3085 160.358 15.3234C160.612 15.3387 160.826 15.348 161.007 15.348C161.377 15.3428 161.746 15.3021 162.109 15.2264L162.112 12.6667Z" fill="#DADCE5"/>
<path d="M95.0996 1.51378C94.9698 1.32463 94.7951 1.16966 94.5907 1.0624C94.3863 0.955148 94.1584 0.89886 93.9269 0.898444V0.898444C93.6954 0.897767 93.4674 0.953595 93.263 1.06096C93.0587 1.16832 92.8845 1.32388 92.7559 1.51378L90.289 5.1135L87.8455 1.54454C87.6416 1.23813 87.3262 1.02062 86.9645 0.936902C86.687 0.875431 86.3972 0.897718 86.1328 1.00087C85.8683 1.10402 85.6414 1.28327 85.4816 1.51532L75.14 16.6172C74.9839 16.8413 74.9004 17.1068 74.9004 17.3787C74.9004 17.6506 74.9839 17.9161 75.14 18.1402C75.2743 18.3325 75.4545 18.4893 75.6647 18.5966C75.8749 18.7039 76.1087 18.7585 76.3454 18.7555H82.8556C83.0871 18.7562 83.3152 18.7003 83.5195 18.593C83.7239 18.4856 83.8981 18.3301 84.0267 18.1402L86.5731 14.4235L89.1179 18.1402C89.2483 18.3274 89.4229 18.4805 89.6267 18.5862C89.8304 18.692 90.0572 18.7472 90.2874 18.7472C90.5177 18.7472 90.7445 18.692 90.9482 18.5862C91.152 18.4805 91.3266 18.3274 91.4569 18.1402L94.0018 14.4235L96.5466 18.1402C96.6761 18.3296 96.8507 18.4848 97.0552 18.5921C97.2596 18.6994 97.4877 18.7555 97.7192 18.7555H104.228C104.465 18.7586 104.698 18.7041 104.909 18.5968C105.119 18.4895 105.299 18.3326 105.433 18.1402C105.59 17.9162 105.674 17.6507 105.674 17.3787C105.674 17.1067 105.59 16.8411 105.433 16.6172L95.0996 1.51378ZM88.962 7.05181L82.4268 16.5895H77.8143L86.6573 3.67822L88.9636 7.04719L88.962 7.05181ZM96.3158 7.17026L90.289 15.9696L87.9032 12.4821L93.9269 3.68592L96.3158 7.17333V7.17026ZM98.1543 16.5941L95.3366 12.4821L97.6444 9.11318L102.764 16.5957H98.1481L98.1543 16.5941Z" fill="#DADCE5"/>
</svg>
